<?plantuml 1.2026.1beta5?>
<svg xmlns="http://www.w3.org/2000/svg" xmlns:xlink="http://www.w3.org/1999/xlink" contentStyleType="text/css" data-diagram-type="ACTIVITY" height="1215px" preserveAspectRatio="none" style="width:665px;height:1215px;background:#FFFFFF;" version="1.1" viewBox="0 0 665 1215" width="665px" zoomAndPan="magnify"><defs/><g><ellipse cx="402.4529" cy="20" fill="#222222" rx="10" ry="10" style="stroke:#222222;stroke-width:1;"/><rect fill="none" height="674.7729" style="stroke:#000000;stroke-width:1.5;" width="469.97" x="181.3621" y="40"/><path d="M342.5662,40 L342.5662,49.2969 L332.5662,59.2969 L181.3621,59.2969" fill="none" style="stroke:#000000;stroke-width:1.5;"/><text fill="#000000" font-family="sans-serif" font-size="14" lengthAdjust="spacing" textLength="151.2041" x="184.3621" y="53.9951">Node (ESP32 + LoRa)</text><rect fill="#F1F1F1" height="47.9375" rx="12.5" ry="12.5" style="stroke:#181818;stroke-width:0.5;" width="279.9043" x="262.5007" y="76.2969"/><text fill="#000000" font-family="sans-serif" font-size="12" lengthAdjust="spacing" textLength="105.5039" x="272.5007" y="97.4355">Đóng gói payload</text><text fill="#000000" font-family="sans-serif" font-size="12" lengthAdjust="spacing" textLength="259.9043" x="272.5007" y="111.4043">(device_id, flag, HR/SpO2/Temp/GPS, flags)</text><rect fill="#F1F1F1" height="33.9688" rx="12.5" ry="12.5" style="stroke:#181818;stroke-width:0.5;" width="169.4141" x="317.7458" y="144.2344"/><text fill="#000000" font-family="sans-serif" font-size="12" lengthAdjust="spacing" textLength="149.4141" x="327.7458" y="165.373">Mã hóa/Ký số + gắn CRC</text><rect fill="#F1F1F1" height="33.9688" rx="12.5" ry="12.5" style="stroke:#181818;stroke-width:0.5;" width="74.375" x="365.2654" y="198.2031"/><text fill="#000000" font-family="sans-serif" font-size="12" lengthAdjust="spacing" textLength="54.375" x="375.2654" y="219.3418">retry = 0</text><rect fill="#F1F1F1" height="33.9688" rx="12.5" ry="12.5" style="stroke:#181818;stroke-width:0.5;" width="226.6543" x="289.1257" y="296.1719"/><text fill="#000000" font-family="sans-serif" font-size="12" lengthAdjust="spacing" textLength="206.6543" x="299.1257" y="317.3105">CSMA/CA backoff + đánh giá kênh</text><rect fill="#F1F1F1" height="33.9688" rx="12.5" ry="12.5" style="stroke:#181818;stroke-width:0.5;" width="162.793" x="321.0564" y="350.1406"/><text fill="#000000" font-family="sans-serif" font-size="12" lengthAdjust="spacing" textLength="142.793" x="331.0564" y="371.2793">Gửi frame LoRa (uplink)</text><polygon fill="#F1F1F1" points="338.6846,417.125,466.2212,417.125,478.2212,429.125,466.2212,441.125,338.6846,441.125,326.6846,429.125,338.6846,417.125" style="stroke:#181818;stroke-width:0.5;"/><text fill="#000000" font-family="sans-serif" font-size="11" lengthAdjust="spacing" textLength="127.5366" x="338.6846" y="432.9331">Nhận ACK từ Gateway?</text><text fill="#000000" font-family="sans-serif" font-size="11" lengthAdjust="spacing" textLength="14.4106" x="312.2739" y="426.5308">Có</text><text fill="#000000" font-family="sans-serif" font-size="11" lengthAdjust="spacing" textLength="34.8691" x="478.2212" y="426.5308">Không</text><rect fill="#F1F1F1" height="33.9688" rx="12.5" ry="12.5" style="stroke:#181818;stroke-width:0.5;" width="121.1152" x="427.6636" y="451.125"/><text fill="#000000" font-family="sans-serif" font-size="12" lengthAdjust="spacing" textLength="101.1152" x="437.6636" y="472.2637">retry = retry + 1</text><polygon fill="#F1F1F1" points="402.4529,252.1719,414.4529,264.1719,402.4529,276.1719,390.4529,264.1719,402.4529,252.1719" style="stroke:#181818;stroke-width:0.5;"/><polygon fill="#F1F1F1" points="373.9968,505.0938,430.9089,505.0938,442.9089,517.0938,430.9089,529.0938,373.9968,529.0938,361.9968,517.0938,373.9968,505.0938" style="stroke:#181818;stroke-width:0.5;"/><text fill="#000000" font-family="sans-serif" font-size="11" lengthAdjust="spacing" textLength="34.8691" x="406.4529" y="539.3042">Không</text><text fill="#000000" font-family="sans-serif" font-size="11" lengthAdjust="spacing" textLength="56.9121" x="373.9968" y="520.9019">retry &lt; N?</text><text fill="#000000" font-family="sans-serif" font-size="11" lengthAdjust="spacing" textLength="14.4106" x="442.9089" y="514.4995">Có</text><polygon fill="#F1F1F1" points="402.4529,560.8042,414.4529,572.8042,402.4529,584.8042,390.4529,572.8042,402.4529,560.8042" style="stroke:#181818;stroke-width:0.5;"/><polygon fill="#F1F1F1" points="348.801,604.8042,456.1047,604.8042,468.1047,616.8042,456.1047,628.8042,348.801,628.8042,336.801,616.8042,348.801,604.8042" style="stroke:#181818;stroke-width:0.5;"/><text fill="#000000" font-family="sans-serif" font-size="11" lengthAdjust="spacing" textLength="107.3037" x="348.801" y="620.6123">Đã gửi thành công?</text><text fill="#000000" font-family="sans-serif" font-size="11" lengthAdjust="spacing" textLength="14.4106" x="322.3904" y="614.21">Có</text><text fill="#000000" font-family="sans-serif" font-size="11" lengthAdjust="spacing" textLength="34.8691" x="468.1047" y="614.21">Không</text><rect fill="#F1F1F1" height="33.9688" rx="12.5" ry="12.5" style="stroke:#181818;stroke-width:0.5;" width="174.8926" x="201.3621" y="638.8042"/><text fill="#000000" font-family="sans-serif" font-size="12" lengthAdjust="spacing" textLength="154.8926" x="211.3621" y="659.9429">Ghi trạng thái DELIVERED</text><rect fill="#F1F1F1" height="33.9688" rx="12.5" ry="12.5" style="stroke:#181818;stroke-width:0.5;" width="239.6855" x="396.2546" y="638.8042"/><text fill="#000000" font-family="sans-serif" font-size="12" lengthAdjust="spacing" textLength="219.6855" x="406.2546" y="659.9429">Lưu vào Outbox (SD/Flash) để gửi lại</text><polygon fill="#F1F1F1" points="402.4529,678.7729,414.4529,690.7729,402.4529,702.7729,390.4529,690.7729,402.4529,678.7729" style="stroke:#181818;stroke-width:0.5;"/><rect fill="none" height="480.1094" style="stroke:#000000;stroke-width:1.5;" width="643.7239" x="11" y="724.7729"/><path d="M148.7568,724.7729 L148.7568,734.0698 L138.7568,744.0698 L11,744.0698" fill="none" style="stroke:#000000;stroke-width:1.5;"/><text fill="#000000" font-family="sans-serif" font-size="14" lengthAdjust="spacing" textLength="127.7568" x="14" y="738.7681">Gateway/Receiver</text><rect fill="#F1F1F1" height="33.9688" rx="12.5" ry="12.5" style="stroke:#181818;stroke-width:0.5;" width="124.4727" x="340.2166" y="761.0698"/><text fill="#000000" font-family="sans-serif" font-size="12" lengthAdjust="spacing" textLength="104.4727" x="350.2166" y="782.2085">Nhận frame LoRa</text><rect fill="#F1F1F1" height="33.9688" rx="12.5" ry="12.5" style="stroke:#181818;stroke-width:0.5;" width="198.1777" x="303.364" y="815.0386"/><text fill="#000000" font-family="sans-serif" font-size="12" lengthAdjust="spacing" textLength="178.1777" x="313.364" y="836.1772">Kiểm tra CRC / xác thực Node</text><polygon fill="#F1F1F1" points="363.2466,869.0073,441.6592,869.0073,453.6592,881.0073,441.6592,893.0073,363.2466,893.0073,351.2466,881.0073,363.2466,869.0073" style="stroke:#181818;stroke-width:0.5;"/><text fill="#000000" font-family="sans-serif" font-size="11" lengthAdjust="spacing" textLength="78.4126" x="363.2466" y="884.8154">Frame hợp lệ?</text><text fill="#000000" font-family="sans-serif" font-size="11" lengthAdjust="spacing" textLength="14.4106" x="336.8359" y="878.4131">Có</text><text fill="#000000" font-family="sans-serif" font-size="11" lengthAdjust="spacing" textLength="34.8691" x="453.6592" y="878.4131">Không</text><rect fill="#F1F1F1" height="33.9688" rx="12.5" ry="12.5" style="stroke:#181818;stroke-width:0.5;" width="257.7969" x="105.5884" y="903.0073"/><text fill="#000000" font-family="sans-serif" font-size="12" lengthAdjust="spacing" textLength="237.7969" x="115.5884" y="924.146">Deduplicate + gắn timestamp Gateway</text><rect fill="#F1F1F1" height="33.9688" style="stroke:#181818;stroke-width:0.5;" width="134.1992" x="167.3872" y="956.9761"/><line style="stroke:#181818;stroke-width:0.5;" x1="172.3872" x2="172.3872" y1="956.9761" y2="990.9448"/><line style="stroke:#181818;stroke-width:0.5;" x1="296.5864" x2="296.5864" y1="956.9761" y2="990.9448"/><text fill="#000000" font-family="sans-serif" font-size="12" lengthAdjust="spacing" textLength="114.1992" x="177.3872" y="978.1147">Forward lên Server</text><polygon fill="#F1F1F1" points="191.0374,1010.9448,277.9363,1010.9448,289.9363,1022.9448,277.9363,1034.9448,191.0374,1034.9448,179.0374,1022.9448,191.0374,1010.9448" style="stroke:#181818;stroke-width:0.5;"/><text fill="#000000" font-family="sans-serif" font-size="11" lengthAdjust="spacing" textLength="86.8989" x="191.0374" y="1026.7529">Server trả ACK?</text><text fill="#000000" font-family="sans-serif" font-size="11" lengthAdjust="spacing" textLength="14.4106" x="164.6267" y="1020.3506">Có</text><text fill="#000000" font-family="sans-serif" font-size="11" lengthAdjust="spacing" textLength="34.8691" x="289.9363" y="1020.3506">Không</text><rect fill="#F1F1F1" height="33.9688" rx="12.5" ry="12.5" style="stroke:#181818;stroke-width:0.5;" width="188.7207" x="23" y="1044.9448"/><text fill="#000000" font-family="sans-serif" font-size="12" lengthAdjust="spacing" textLength="168.7207" x="33" y="1066.0835">Gửi ACK về Node (downlink)</text><rect fill="#F1F1F1" height="33.9688" rx="12.5" ry="12.5" style="stroke:#181818;stroke-width:0.5;" width="239.7852" x="231.7207" y="1044.9448"/><text fill="#000000" font-family="sans-serif" font-size="12" lengthAdjust="spacing" textLength="219.7852" x="241.7207" y="1066.0835">Đưa vào hàng đợi retry (local buffer)</text><rect fill="#F1F1F1" height="33.9688" rx="12.5" ry="12.5" style="stroke:#181818;stroke-width:0.5;" width="86.3105" x="308.458" y="1098.9136"/><text fill="#000000" font-family="sans-serif" font-size="12" lengthAdjust="spacing" textLength="66.3105" x="318.458" y="1120.0522">Không ACK</text><polygon fill="#F1F1F1" points="234.4868,1138.8823,246.4868,1150.8823,234.4868,1162.8823,222.4868,1150.8823,234.4868,1138.8823" style="stroke:#181818;stroke-width:0.5;"/><rect fill="#F1F1F1" height="33.9688" rx="12.5" ry="12.5" style="stroke:#181818;stroke-width:0.5;" width="137.8262" x="501.5059" y="903.0073"/><text fill="#000000" font-family="sans-serif" font-size="12" lengthAdjust="spacing" textLength="117.8262" x="511.5059" y="924.146">Drop frame (log lỗi)</text><polygon fill="#F1F1F1" points="402.4529,1168.8823,414.4529,1180.8823,402.4529,1192.8823,390.4529,1180.8823,402.4529,1168.8823" style="stroke:#181818;stroke-width:0.5;"/><line style="stroke:#181818;stroke-width:1;" x1="402.4529" x2="402.4529" y1="124.2344" y2="144.2344"/><polygon fill="#181818" points="398.4529,134.2344,402.4529,144.2344,406.4529,134.2344,402.4529,138.2344" style="stroke:#181818;stroke-width:1;"/><line style="stroke:#181818;stroke-width:1;" x1="402.4529" x2="402.4529" y1="178.2031" y2="198.2031"/><polygon fill="#181818" points="398.4529,188.2031,402.4529,198.2031,406.4529,188.2031,402.4529,192.2031" style="stroke:#181818;stroke-width:1;"/><line style="stroke:#181818;stroke-width:1;" x1="402.4529" x2="402.4529" y1="330.1406" y2="350.1406"/><polygon fill="#181818" points="398.4529,340.1406,402.4529,350.1406,406.4529,340.1406,402.4529,344.1406" style="stroke:#181818;stroke-width:1;"/><line style="stroke:#181818;stroke-width:1;" x1="326.6846" x2="316.6846" y1="429.125" y2="429.125"/><line style="stroke:#181818;stroke-width:1;" x1="316.6846" x2="316.6846" y1="429.125" y2="572.8042"/><line style="stroke:#181818;stroke-width:1;" x1="316.6846" x2="390.4529" y1="572.8042" y2="572.8042"/><polygon fill="#181818" points="380.4529,568.8042,390.4529,572.8042,380.4529,576.8042,384.4529,572.8042" style="stroke:#181818;stroke-width:1;"/><line style="stroke:#181818;stroke-width:1;" x1="478.2212" x2="488.2212" y1="429.125" y2="429.125"/><line style="stroke:#181818;stroke-width:1;" x1="488.2212" x2="488.2212" y1="429.125" y2="451.125"/><polygon fill="#181818" points="484.2212,441.125,488.2212,451.125,492.2212,441.125,488.2212,445.125" style="stroke:#181818;stroke-width:1;"/><line style="stroke:#181818;stroke-width:1;" x1="488.2212" x2="488.2212" y1="485.0938" y2="490.0938"/><line style="stroke:#181818;stroke-width:1;" x1="488.2212" x2="402.4529" y1="490.0938" y2="490.0938"/><line style="stroke:#181818;stroke-width:1;" x1="402.4529" x2="402.4529" y1="490.0938" y2="505.0938"/><polygon fill="#181818" points="398.4529,495.0938,402.4529,505.0938,406.4529,495.0938,402.4529,499.0938" style="stroke:#181818;stroke-width:1;"/><line style="stroke:#181818;stroke-width:1;" x1="402.4529" x2="402.4529" y1="384.1094" y2="417.125"/><polygon fill="#181818" points="398.4529,407.125,402.4529,417.125,406.4529,407.125,402.4529,411.125" style="stroke:#181818;stroke-width:1;"/><line style="stroke:#181818;stroke-width:1;" x1="402.4529" x2="402.4529" y1="276.1719" y2="296.1719"/><polygon fill="#181818" points="398.4529,286.1719,402.4529,296.1719,406.4529,286.1719,402.4529,290.1719" style="stroke:#181818;stroke-width:1;"/><line style="stroke:#181818;stroke-width:1;" x1="442.9089" x2="570.7788" y1="517.0938" y2="517.0938"/><polygon fill="#181818" points="566.7788,397.125,570.7788,387.125,574.7788,397.125,570.7788,393.125" style="stroke:#181818;stroke-width:1;"/><line style="stroke:#181818;stroke-width:1;" x1="570.7788" x2="570.7788" y1="264.1719" y2="517.0938"/><line style="stroke:#181818;stroke-width:1;" x1="570.7788" x2="414.4529" y1="264.1719" y2="264.1719"/><polygon fill="#181818" points="424.4529,260.1719,414.4529,264.1719,424.4529,268.1719,420.4529,264.1719" style="stroke:#181818;stroke-width:1;"/><line style="stroke:#181818;stroke-width:1;" x1="402.4529" x2="402.4529" y1="529.0938" y2="560.8042"/><polygon fill="#181818" points="398.4529,550.8042,402.4529,560.8042,406.4529,550.8042,402.4529,554.8042" style="stroke:#181818;stroke-width:1;"/><line style="stroke:#181818;stroke-width:1;" x1="402.4529" x2="402.4529" y1="232.1719" y2="252.1719"/><polygon fill="#181818" points="398.4529,242.1719,402.4529,252.1719,406.4529,242.1719,402.4529,246.1719" style="stroke:#181818;stroke-width:1;"/><line style="stroke:#181818;stroke-width:1;" x1="336.801" x2="288.8083" y1="616.8042" y2="616.8042"/><line style="stroke:#181818;stroke-width:1;" x1="288.8083" x2="288.8083" y1="616.8042" y2="638.8042"/><polygon fill="#181818" points="284.8083,628.8042,288.8083,638.8042,292.8083,628.8042,288.8083,632.8042" style="stroke:#181818;stroke-width:1;"/><line style="stroke:#181818;stroke-width:1;" x1="468.1047" x2="516.0974" y1="616.8042" y2="616.8042"/><line style="stroke:#181818;stroke-width:1;" x1="516.0974" x2="516.0974" y1="616.8042" y2="638.8042"/><polygon fill="#181818" points="512.0974,628.8042,516.0974,638.8042,520.0974,628.8042,516.0974,632.8042" style="stroke:#181818;stroke-width:1;"/><line style="stroke:#181818;stroke-width:1;" x1="288.8083" x2="288.8083" y1="672.7729" y2="690.7729"/><line style="stroke:#181818;stroke-width:1;" x1="288.8083" x2="390.4529" y1="690.7729" y2="690.7729"/><polygon fill="#181818" points="380.4529,686.7729,390.4529,690.7729,380.4529,694.7729,384.4529,690.7729" style="stroke:#181818;stroke-width:1;"/><line style="stroke:#181818;stroke-width:1;" x1="516.0974" x2="516.0974" y1="672.7729" y2="690.7729"/><line style="stroke:#181818;stroke-width:1;" x1="516.0974" x2="414.4529" y1="690.7729" y2="690.7729"/><polygon fill="#181818" points="424.4529,686.7729,414.4529,690.7729,424.4529,694.7729,420.4529,690.7729" style="stroke:#181818;stroke-width:1;"/><line style="stroke:#181818;stroke-width:1;" x1="402.4529" x2="402.4529" y1="584.8042" y2="604.8042"/><polygon fill="#181818" points="398.4529,594.8042,402.4529,604.8042,406.4529,594.8042,402.4529,598.8042" style="stroke:#181818;stroke-width:1;"/><line style="stroke:#181818;stroke-width:1;" x1="402.4529" x2="402.4529" y1="30" y2="76.2969"/><polygon fill="#181818" points="398.4529,66.2969,402.4529,76.2969,406.4529,66.2969,402.4529,70.2969" style="stroke:#181818;stroke-width:1;"/><line style="stroke:#181818;stroke-width:1;" x1="402.4529" x2="402.4529" y1="795.0386" y2="815.0386"/><polygon fill="#181818" points="398.4529,805.0386,402.4529,815.0386,406.4529,805.0386,402.4529,809.0386" style="stroke:#181818;stroke-width:1;"/><line style="stroke:#181818;stroke-width:1;" x1="234.4868" x2="234.4868" y1="936.9761" y2="956.9761"/><polygon fill="#181818" points="230.4868,946.9761,234.4868,956.9761,238.4868,946.9761,234.4868,950.9761" style="stroke:#181818;stroke-width:1;"/><line style="stroke:#181818;stroke-width:1;" x1="351.6133" x2="351.6133" y1="1078.9136" y2="1098.9136"/><polygon fill="#181818" points="347.6133,1088.9136,351.6133,1098.9136,355.6133,1088.9136,351.6133,1092.9136" style="stroke:#181818;stroke-width:1;"/><line style="stroke:#181818;stroke-width:1;" x1="179.0374" x2="117.3604" y1="1022.9448" y2="1022.9448"/><line style="stroke:#181818;stroke-width:1;" x1="117.3604" x2="117.3604" y1="1022.9448" y2="1044.9448"/><polygon fill="#181818" points="113.3604,1034.9448,117.3604,1044.9448,121.3604,1034.9448,117.3604,1038.9448" style="stroke:#181818;stroke-width:1;"/><line style="stroke:#181818;stroke-width:1;" x1="289.9363" x2="351.6133" y1="1022.9448" y2="1022.9448"/><line style="stroke:#181818;stroke-width:1;" x1="351.6133" x2="351.6133" y1="1022.9448" y2="1044.9448"/><polygon fill="#181818" points="347.6133,1034.9448,351.6133,1044.9448,355.6133,1034.9448,351.6133,1038.9448" style="stroke:#181818;stroke-width:1;"/><line style="stroke:#181818;stroke-width:1;" x1="117.3604" x2="117.3604" y1="1078.9136" y2="1150.8823"/><line style="stroke:#181818;stroke-width:1;" x1="117.3604" x2="222.4868" y1="1150.8823" y2="1150.8823"/><polygon fill="#181818" points="212.4868,1146.8823,222.4868,1150.8823,212.4868,1154.8823,216.4868,1150.8823" style="stroke:#181818;stroke-width:1;"/><line style="stroke:#181818;stroke-width:1;" x1="351.6133" x2="351.6133" y1="1132.8823" y2="1150.8823"/><line style="stroke:#181818;stroke-width:1;" x1="351.6133" x2="246.4868" y1="1150.8823" y2="1150.8823"/><polygon fill="#181818" points="256.4868,1146.8823,246.4868,1150.8823,256.4868,1154.8823,252.4868,1150.8823" style="stroke:#181818;stroke-width:1;"/><line style="stroke:#181818;stroke-width:1;" x1="234.4868" x2="234.4868" y1="990.9448" y2="1010.9448"/><polygon fill="#181818" points="230.4868,1000.9448,234.4868,1010.9448,238.4868,1000.9448,234.4868,1004.9448" style="stroke:#181818;stroke-width:1;"/><line style="stroke:#181818;stroke-width:1;" x1="351.2466" x2="234.4868" y1="881.0073" y2="881.0073"/><line style="stroke:#181818;stroke-width:1;" x1="234.4868" x2="234.4868" y1="881.0073" y2="903.0073"/><polygon fill="#181818" points="230.4868,893.0073,234.4868,903.0073,238.4868,893.0073,234.4868,897.0073" style="stroke:#181818;stroke-width:1;"/><line style="stroke:#181818;stroke-width:1;" x1="453.6592" x2="570.4189" y1="881.0073" y2="881.0073"/><line style="stroke:#181818;stroke-width:1;" x1="570.4189" x2="570.4189" y1="881.0073" y2="903.0073"/><polygon fill="#181818" points="566.4189,893.0073,570.4189,903.0073,574.4189,893.0073,570.4189,897.0073" style="stroke:#181818;stroke-width:1;"/><line style="stroke:#181818;stroke-width:1;" x1="234.4868" x2="234.4868" y1="1162.8823" y2="1180.8823"/><line style="stroke:#181818;stroke-width:1;" x1="234.4868" x2="390.4529" y1="1180.8823" y2="1180.8823"/><polygon fill="#181818" points="380.4529,1176.8823,390.4529,1180.8823,380.4529,1184.8823,384.4529,1180.8823" style="stroke:#181818;stroke-width:1;"/><line style="stroke:#181818;stroke-width:1;" x1="570.4189" x2="570.4189" y1="936.9761" y2="1180.8823"/><line style="stroke:#181818;stroke-width:1;" x1="570.4189" x2="414.4529" y1="1180.8823" y2="1180.8823"/><polygon fill="#181818" points="424.4529,1176.8823,414.4529,1180.8823,424.4529,1184.8823,420.4529,1180.8823" style="stroke:#181818;stroke-width:1;"/><line style="stroke:#181818;stroke-width:1;" x1="402.4529" x2="402.4529" y1="849.0073" y2="869.0073"/><polygon fill="#181818" points="398.4529,859.0073,402.4529,869.0073,406.4529,859.0073,402.4529,863.0073" style="stroke:#181818;stroke-width:1;"/><line style="stroke:#181818;stroke-width:1;" x1="402.4529" x2="402.4529" y1="702.7729" y2="761.0698"/><polygon fill="#181818" points="398.4529,751.0698,402.4529,761.0698,406.4529,751.0698,402.4529,755.0698" style="stroke:#181818;stroke-width:1;"/><?plantuml-src TLHDRzf04BtpAqQzn2YftAQtaAQYG6X4FX14LG-LgiKUsokCrrelaAZAeUgXr-JKQn2tLb5JqLDGJuxoF_nFEhis92ZfnTZiyvkPzzuuKKogKYccArTSHF3iKBW8LgFRVhK9wx0lEgpy33wN0BPkpzDPv8EVpZZ4x3GKpFqOMIwEk8EVkBi1NiZy3NZNiRlnqQPzZ8FORhQx-Vz9kQ8v3j8f1EcCsQtqBoJP_89g-DdDhmXgdLgbf24IbJo5r_32F4gCaIcwePDQzw1grwhGOqvVU1wzUdkHJg80V9vEe9_-Y89AZcncyoiEdcG3D2E0DOn37lNBXXE0Us0T1jdDLGJLMWjKDly9JQPmp4xVb445685LIsTb0mReIMHzSuzXGkgqWlHFv2zEbntdl-lmCky28vTxon5W7F2Gtir1st18XNYIbu58g7lMKjuVoJqbRVGWAaWlQKn7dp_kRwiP44HcDnDoXw0J3lN6_jxxHgTHrvqyxdbh_-vw2AFqKi3HKFN42LZTkhqRiYGeawRP_6jHE2HIRZZCB6ShIIa4iple81-XB69Iw7ellZ6-nObrG6qoxJJOS99E7Eesc_zsG6UkifXxrxn81zEOwi-_FJ5m7LtjfqCDBFEZ-00JnGRnmiWY2hj2Zfbq8QHuG1SbDLg1xUrO2eTO9Exit4SYFpPQJdKmdif2aIqTcr4s_mBvlhXY71K1-szCRi_lhbckklRJDqfFUH4RAnGE2w4tz3oK1OtMpN3eSgkXUiBKkXHn8JkH-Lgyxxoyufwzzi2_ObghsjuZ5UjlwL8DKIgzxsisOOdpmmEN2bt1KgAFaUreQ6K1R3EPQ3D6BEIkzYLn0XomvRdEA9MmZK_F4vGS4qYKaCn73J8exO7vMD0oDGOeVOoSrOKiwBGmwPKJG20eeRHRGlQzK8p18UTeKthfHD2tIUNYwIVeOE8C4MeOAQrlGMIKMPJVEbuOdrkx29B1dkKeQZbUi_y1?></g></svg>